{
	"asset":{
		"generator":"Khronos glTF Blender I/O v4.0.44",
		"version":"2.0"
	},
	"scene":0,
	"scenes":[
		{
			"name":"Scene",
			"nodes":[
				0,
				1,
				2
			]
		}
	],
	"nodes":[
		{
			"mesh":0,
			"name":"Screen",
			"rotation":[
				0,
				0,
				-0.0019846560899168253,
				1
			],
			"scale":[
				1,
				0.02393837459385395,
				1.3000000715255737
			],
			"translation":[
				-0.9915274977684021,
				0.03327207639813423,
				0.014368711970746517
			]
		},
		{
			"mesh":1,
			"name":"Boitier",
			"scale":[
				1,
				0.02393837459385395,
				1.3000000715255737
			],
			"translation":[
				0.013047218322753906,
				0,
				0
			]
		},
		{
			"mesh":2,
			"name":"Clavier",
			"scale":[
				0.05727297067642212,
				0.00942415464669466,
				0.05727297067642212
			],
			"translation":[
				-0.7068382501602173,
				0.009940152056515217,
				1.0673285722732544
			]
		}
	],
	"animations":[
		{
			"channels":[
				{
					"sampler":0,
					"target":{
						"node":0,
						"path":"translation"
					}
				},
				{
					"sampler":1,
					"target":{
						"node":0,
						"path":"rotation"
					}
				},
				{
					"sampler":2,
					"target":{
						"node":0,
						"path":"scale"
					}
				}
			],
			"name":"ScreenAction.004",
			"samplers":[
				{
					"input":12,
					"interpolation":"LINEAR",
					"output":13
				},
				{
					"input":14,
					"interpolation":"LINEAR",
					"output":15
				},
				{
					"input":12,
					"interpolation":"LINEAR",
					"output":16
				}
			]
		}
	],
	"materials":[
		{
			"doubleSided":true,
			"name":"Screen",
			"pbrMetallicRoughness":{
				"baseColorTexture":{
					"index":0
				},
				"metallicFactor":0,
				"metallicRoughnessTexture":{
					"index":1
				}
			}
		},
		{
			"doubleSided":true,
			"name":"Boitier",
			"pbrMetallicRoughness":{
				"baseColorFactor":[
					0,
					0,
					0,
					1
				],
				"metallicFactor":0
			}
		},
		{
			"doubleSided":true,
			"name":"Clavier",
			"pbrMetallicRoughness":{
				"baseColorFactor":[
					0.010687753558158875,
					0.010687753558158875,
					0.010687753558158875,
					1
				],
				"metallicFactor":0
			}
		}
	],
	"meshes":[
		{
			"name":"Cube.001",
			"primitives":[
				{
					"attributes":{
						"POSITION":0,
						"NORMAL":1,
						"TEXCOORD_0":2
					},
					"indices":3,
					"material":0
				}
			]
		},
		{
			"name":"Cube.002",
			"primitives":[
				{
					"attributes":{
						"POSITION":4,
						"NORMAL":5,
						"TEXCOORD_0":6
					},
					"indices":7,
					"material":1
				}
			]
		},
		{
			"name":"Cube.003",
			"primitives":[
				{
					"attributes":{
						"POSITION":8,
						"NORMAL":9,
						"TEXCOORD_0":10
					},
					"indices":11,
					"material":2
				}
			]
		}
	],
	"textures":[
		{
			"sampler":0,
			"source":0
		},
		{
			"sampler":0,
			"source":1
		}
	],
	"images":[
		{
			"mimeType":"image/png",
			"name":"Ecran-Color",
			"uri":"textures/Ecran-Color.png"
		},
		{
			"mimeType":"image/png",
			"name":"Ecran-roughness",
			"uri":"textures/Ecran-roughness.png"
		}
	],
	"accessors":[
		{
			"bufferView":0,
			"componentType":5126,
			"count":56,
			"max":[
				1.9897332191467285,
				2.0671310424804688,
				0.9889471530914307
			],
			"min":[
				-0.01026684045791626,
				-0.0657048225402832,
				-1.0110528469085693
			],
			"type":"VEC3"
		},
		{
			"bufferView":1,
			"componentType":5126,
			"count":56,
			"type":"VEC3"
		},
		{
			"bufferView":2,
			"componentType":5126,
			"count":56,
			"type":"VEC2"
		},
		{
			"bufferView":3,
			"componentType":5123,
			"count":84,
			"type":"SCALAR"
		},
		{
			"bufferView":4,
			"componentType":5126,
			"count":172,
			"max":[
				1,
				1,
				1
			],
			"min":[
				-1,
				-1,
				-1
			],
			"type":"VEC3"
		},
		{
			"bufferView":5,
			"componentType":5126,
			"count":172,
			"type":"VEC3"
		},
		{
			"bufferView":6,
			"componentType":5126,
			"count":172,
			"type":"VEC2"
		},
		{
			"bufferView":7,
			"componentType":5123,
			"count":492,
			"type":"SCALAR"
		},
		{
			"bufferView":8,
			"componentType":5126,
			"count":2712,
			"max":[
				14.800000190734863,
				1,
				1
			],
			"min":[
				-1,
				-1,
				-37.79999542236328
			],
			"type":"VEC3"
		},
		{
			"bufferView":9,
			"componentType":5126,
			"count":2712,
			"type":"VEC3"
		},
		{
			"bufferView":10,
			"componentType":5126,
			"count":2712,
			"type":"VEC2"
		},
		{
			"bufferView":11,
			"componentType":5123,
			"count":4068,
			"type":"SCALAR"
		},
		{
			"bufferView":12,
			"componentType":5126,
			"count":2,
			"max":[
				0.8333333333333334
			],
			"min":[
				0
			],
			"type":"SCALAR"
		},
		{
			"bufferView":13,
			"componentType":5126,
			"count":2,
			"type":"VEC3"
		},
		{
			"bufferView":14,
			"componentType":5126,
			"count":21,
			"max":[
				0.8333333333333334
			],
			"min":[
				0
			],
			"type":"SCALAR"
		},
		{
			"bufferView":15,
			"componentType":5126,
			"count":21,
			"type":"VEC4"
		},
		{
			"bufferView":16,
			"componentType":5126,
			"count":2,
			"type":"VEC3"
		}
	],
	"bufferViews":[
		{
			"buffer":0,
			"byteLength":672,
			"byteOffset":0,
			"target":34962
		},
		{
			"buffer":0,
			"byteLength":672,
			"byteOffset":672,
			"target":34962
		},
		{
			"buffer":0,
			"byteLength":448,
			"byteOffset":1344,
			"target":34962
		},
		{
			"buffer":0,
			"byteLength":168,
			"byteOffset":1792,
			"target":34963
		},
		{
			"buffer":0,
			"byteLength":2064,
			"byteOffset":1960,
			"target":34962
		},
		{
			"buffer":0,
			"byteLength":2064,
			"byteOffset":4024,
			"target":34962
		},
		{
			"buffer":0,
			"byteLength":1376,
			"byteOffset":6088,
			"target":34962
		},
		{
			"buffer":0,
			"byteLength":984,
			"byteOffset":7464,
			"target":34963
		},
		{
			"buffer":0,
			"byteLength":32544,
			"byteOffset":8448,
			"target":34962
		},
		{
			"buffer":0,
			"byteLength":32544,
			"byteOffset":40992,
			"target":34962
		},
		{
			"buffer":0,
			"byteLength":21696,
			"byteOffset":73536,
			"target":34962
		},
		{
			"buffer":0,
			"byteLength":8136,
			"byteOffset":95232,
			"target":34963
		},
		{
			"buffer":0,
			"byteLength":8,
			"byteOffset":103368
		},
		{
			"buffer":0,
			"byteLength":24,
			"byteOffset":103376
		},
		{
			"buffer":0,
			"byteLength":84,
			"byteOffset":103400
		},
		{
			"buffer":0,
			"byteLength":336,
			"byteOffset":103484
		},
		{
			"buffer":0,
			"byteLength":24,
			"byteOffset":103820
		}
	],
	"samplers":[
		{
			"magFilter":9729,
			"minFilter":9987
		}
	],
	"buffers":[
		{
			"byteLength":103844,
			"uri":"laptop.bin"
		}
	]
}
