{
	"asset":{
		"generator":"Khronos glTF Blender I/O v4.0.44",
		"version":"2.0"
	},
	"scene":0,
	"scenes":[
		{
			"name":"Scene",
			"nodes":[
				0,
				1,
				2
			]
		}
	],
	"nodes":[
		{
			"mesh":0,
			"name":"Screen",
			"rotation":[
				0,
				0,
				0.7933533787727356,
				0.6087614297866821
			],
			"scale":[
				1,
				0.02393837459385395,
				1.3000000715255737
			],
			"translation":[
				-1.2168174982070923,
				0.952586829662323,
				0
			]
		},
		{
			"mesh":1,
			"name":"Boitier",
			"scale":[
				1,
				0.02393837459385395,
				1.3000000715255737
			],
			"translation":[
				0.013047218322753906,
				0,
				0
			]
		},
		{
			"mesh":2,
			"name":"Clavier",
			"scale":[
				0.05727297067642212,
				0.00942415464669466,
				0.05727297067642212
			],
			"translation":[
				-0.7068382501602173,
				0.009940152056515217,
				1.0673285722732544
			]
		}
	],
	"materials":[
		{
			"doubleSided":true,
			"name":"Screen",
			"pbrMetallicRoughness":{
				"baseColorTexture":{
					"index":0
				},
				"metallicFactor":0,
				"metallicRoughnessTexture":{
					"index":1
				}
			}
		},
		{
			"doubleSided":true,
			"name":"Boitier",
			"pbrMetallicRoughness":{
				"baseColorFactor":[
					0,
					0,
					0,
					1
				],
				"metallicFactor":0
			}
		},
		{
			"doubleSided":true,
			"name":"Clavier",
			"pbrMetallicRoughness":{
				"baseColorFactor":[
					0.010687753558158875,
					0.010687753558158875,
					0.010687753558158875,
					1
				],
				"metallicFactor":0
			}
		}
	],
	"meshes":[
		{
			"name":"Cube.001",
			"primitives":[
				{
					"attributes":{
						"POSITION":0,
						"NORMAL":1,
						"TEXCOORD_0":2
					},
					"indices":3,
					"material":0
				}
			]
		},
		{
			"name":"Cube.002",
			"primitives":[
				{
					"attributes":{
						"POSITION":4,
						"NORMAL":5,
						"TEXCOORD_0":6
					},
					"indices":7,
					"material":1
				}
			]
		},
		{
			"name":"Cube.003",
			"primitives":[
				{
					"attributes":{
						"POSITION":8,
						"NORMAL":9,
						"TEXCOORD_0":10
					},
					"indices":11,
					"material":2
				}
			]
		}
	],
	"textures":[
		{
			"sampler":0,
			"source":0
		},
		{
			"sampler":0,
			"source":1
		}
	],
	"images":[
		{
			"mimeType":"image/png",
			"name":"Ecran-Color",
			"uri":"textures/Ecran-Color.png"
		},
		{
			"mimeType":"image/png",
			"name":"Ecran-roughness",
			"uri":"textures/Ecran-roughness.png"
		}
	],
	"accessors":[
		{
			"bufferView":0,
			"componentType":5126,
			"count":48,
			"max":[
				1,
				1,
				1
			],
			"min":[
				-1,
				-1.000001311302185,
				-1
			],
			"type":"VEC3"
		},
		{
			"bufferView":1,
			"componentType":5126,
			"count":48,
			"type":"VEC3"
		},
		{
			"bufferView":2,
			"componentType":5126,
			"count":48,
			"type":"VEC2"
		},
		{
			"bufferView":3,
			"componentType":5123,
			"count":84,
			"type":"SCALAR"
		},
		{
			"bufferView":4,
			"componentType":5126,
			"count":172,
			"max":[
				1,
				1,
				1
			],
			"min":[
				-1,
				-1,
				-1
			],
			"type":"VEC3"
		},
		{
			"bufferView":5,
			"componentType":5126,
			"count":172,
			"type":"VEC3"
		},
		{
			"bufferView":6,
			"componentType":5126,
			"count":172,
			"type":"VEC2"
		},
		{
			"bufferView":7,
			"componentType":5123,
			"count":492,
			"type":"SCALAR"
		},
		{
			"bufferView":8,
			"componentType":5126,
			"count":2712,
			"max":[
				14.800000190734863,
				1,
				1
			],
			"min":[
				-1,
				-1,
				-37.79999542236328
			],
			"type":"VEC3"
		},
		{
			"bufferView":9,
			"componentType":5126,
			"count":2712,
			"type":"VEC3"
		},
		{
			"bufferView":10,
			"componentType":5126,
			"count":2712,
			"type":"VEC2"
		},
		{
			"bufferView":11,
			"componentType":5123,
			"count":4068,
			"type":"SCALAR"
		}
	],
	"bufferViews":[
		{
			"buffer":0,
			"byteLength":576,
			"byteOffset":0,
			"target":34962
		},
		{
			"buffer":0,
			"byteLength":576,
			"byteOffset":576,
			"target":34962
		},
		{
			"buffer":0,
			"byteLength":384,
			"byteOffset":1152,
			"target":34962
		},
		{
			"buffer":0,
			"byteLength":168,
			"byteOffset":1536,
			"target":34963
		},
		{
			"buffer":0,
			"byteLength":2064,
			"byteOffset":1704,
			"target":34962
		},
		{
			"buffer":0,
			"byteLength":2064,
			"byteOffset":3768,
			"target":34962
		},
		{
			"buffer":0,
			"byteLength":1376,
			"byteOffset":5832,
			"target":34962
		},
		{
			"buffer":0,
			"byteLength":984,
			"byteOffset":7208,
			"target":34963
		},
		{
			"buffer":0,
			"byteLength":32544,
			"byteOffset":8192,
			"target":34962
		},
		{
			"buffer":0,
			"byteLength":32544,
			"byteOffset":40736,
			"target":34962
		},
		{
			"buffer":0,
			"byteLength":21696,
			"byteOffset":73280,
			"target":34962
		},
		{
			"buffer":0,
			"byteLength":8136,
			"byteOffset":94976,
			"target":34963
		}
	],
	"samplers":[
		{
			"magFilter":9729,
			"minFilter":9987
		}
	],
	"buffers":[
		{
			"byteLength":103112,
			"uri":"laptop.bin"
		}
	]
}
