{
	"asset":{
		"generator":"Khronos glTF Blender I/O v4.0.44",
		"version":"2.0"
	},
	"scene":0,
	"scenes":[
		{
			"name":"Scene",
			"nodes":[
				0,
				1,
				2,
				3
			]
		}
	],
	"nodes":[
		{
			"mesh":0,
			"name":"Chassis",
			"rotation":[
				0,
				0,
				-0.0019846560899168253,
				1
			],
			"scale":[
				1,
				0.02393837459385395,
				1.3000000715255737
			],
			"translation":[
				-0.9915274977684021,
				0.03327207639813423,
				0.014368711970746517
			]
		},
		{
			"mesh":1,
			"name":"Boitier",
			"scale":[
				1,
				0.02393837459385395,
				1.3000000715255737
			],
			"translation":[
				0.013047218322753906,
				0,
				0
			]
		},
		{
			"mesh":2,
			"name":"Clavier",
			"scale":[
				0.05727297067642212,
				0.00942415464669466,
				0.05727297067642212
			],
			"translation":[
				-0.7068382501602173,
				0.009940152056515217,
				1.0673285722732544
			]
		},
		{
			"mesh":3,
			"name":"Screen",
			"rotation":[
				0,
				0,
				-0.0019846560899168253,
				1
			],
			"scale":[
				1,
				0.02393837459385395,
				1.3000000715255737
			],
			"translation":[
				-0.9915274977684021,
				0.03327207639813423,
				0.014368711970746517
			]
		}
	],
	"animations":[
		{
			"channels":[
				{
					"sampler":0,
					"target":{
						"node":0,
						"path":"translation"
					}
				},
				{
					"sampler":1,
					"target":{
						"node":0,
						"path":"rotation"
					}
				},
				{
					"sampler":2,
					"target":{
						"node":0,
						"path":"scale"
					}
				}
			],
			"name":"ScreenAction.004",
			"samplers":[
				{
					"input":16,
					"interpolation":"LINEAR",
					"output":17
				},
				{
					"input":18,
					"interpolation":"LINEAR",
					"output":19
				},
				{
					"input":16,
					"interpolation":"LINEAR",
					"output":20
				}
			]
		},
		{
			"channels":[
				{
					"sampler":0,
					"target":{
						"node":3,
						"path":"translation"
					}
				},
				{
					"sampler":1,
					"target":{
						"node":3,
						"path":"rotation"
					}
				},
				{
					"sampler":2,
					"target":{
						"node":3,
						"path":"scale"
					}
				}
			],
			"name":"ScreenAction.001",
			"samplers":[
				{
					"input":16,
					"interpolation":"LINEAR",
					"output":21
				},
				{
					"input":18,
					"interpolation":"LINEAR",
					"output":22
				},
				{
					"input":16,
					"interpolation":"LINEAR",
					"output":23
				}
			]
		}
	],
	"materials":[
		{
			"doubleSided":true,
			"name":"Chassis",
			"pbrMetallicRoughness":{
				"baseColorTexture":{
					"index":0
				},
				"metallicFactor":0,
				"metallicRoughnessTexture":{
					"index":1
				}
			}
		},
		{
			"doubleSided":true,
			"name":"Boitier",
			"pbrMetallicRoughness":{
				"baseColorFactor":[
					0,
					0,
					0,
					1
				],
				"metallicFactor":0
			}
		},
		{
			"doubleSided":true,
			"name":"Clavier",
			"pbrMetallicRoughness":{
				"baseColorFactor":[
					0.010687753558158875,
					0.010687753558158875,
					0.010687753558158875,
					1
				],
				"metallicFactor":0
			}
		},
		{
			"doubleSided":true,
			"name":"Screen",
			"pbrMetallicRoughness":{
				"baseColorTexture":{
					"index":2
				},
				"metallicFactor":0,
				"roughnessFactor":0.136363685131073
			}
		}
	],
	"meshes":[
		{
			"name":"Cube.001",
			"primitives":[
				{
					"attributes":{
						"POSITION":0,
						"NORMAL":1,
						"TEXCOORD_0":2
					},
					"indices":3,
					"material":0
				}
			]
		},
		{
			"name":"Cube.002",
			"primitives":[
				{
					"attributes":{
						"POSITION":4,
						"NORMAL":5,
						"TEXCOORD_0":6
					},
					"indices":7,
					"material":1
				}
			]
		},
		{
			"name":"Cube.003",
			"primitives":[
				{
					"attributes":{
						"POSITION":8,
						"NORMAL":9,
						"TEXCOORD_0":10
					},
					"indices":11,
					"material":2
				}
			]
		},
		{
			"name":"Cube.004",
			"primitives":[
				{
					"attributes":{
						"POSITION":12,
						"NORMAL":13,
						"TEXCOORD_0":14
					},
					"indices":15,
					"material":3
				}
			]
		}
	],
	"textures":[
		{
			"sampler":0,
			"source":0
		},
		{
			"sampler":0,
			"source":1
		},
		{
			"sampler":0,
			"source":2
		}
	],
	"images":[
		{
			"mimeType":"image/png",
			"name":"Ecran-Color",
			"uri":"textures/Ecran-Color.png"
		},
		{
			"mimeType":"image/png",
			"name":"Ecran-roughness",
			"uri":"textures/Ecran-roughness.png"
		},
		{
			"mimeType":"image/png",
			"name":"Ecran-stretched",
			"uri":"textures/Ecran-stretched.png"
		}
	],
	"accessors":[
		{
			"bufferView":0,
			"componentType":5126,
			"count":52,
			"max":[
				1.9897332191467285,
				2.0671310424804688,
				0.9889471530914307
			],
			"min":[
				-0.01026684045791626,
				-0.0657048225402832,
				-1.0110528469085693
			],
			"type":"VEC3"
		},
		{
			"bufferView":1,
			"componentType":5126,
			"count":52,
			"type":"VEC3"
		},
		{
			"bufferView":2,
			"componentType":5126,
			"count":52,
			"type":"VEC2"
		},
		{
			"bufferView":3,
			"componentType":5123,
			"count":78,
			"type":"SCALAR"
		},
		{
			"bufferView":4,
			"componentType":5126,
			"count":172,
			"max":[
				1,
				1,
				1
			],
			"min":[
				-1,
				-1,
				-1
			],
			"type":"VEC3"
		},
		{
			"bufferView":5,
			"componentType":5126,
			"count":172,
			"type":"VEC3"
		},
		{
			"bufferView":6,
			"componentType":5126,
			"count":172,
			"type":"VEC2"
		},
		{
			"bufferView":7,
			"componentType":5123,
			"count":492,
			"type":"SCALAR"
		},
		{
			"bufferView":8,
			"componentType":5126,
			"count":2712,
			"max":[
				14.800000190734863,
				1,
				1
			],
			"min":[
				-1,
				-1,
				-37.79999542236328
			],
			"type":"VEC3"
		},
		{
			"bufferView":9,
			"componentType":5126,
			"count":2712,
			"type":"VEC3"
		},
		{
			"bufferView":10,
			"componentType":5126,
			"count":2712,
			"type":"VEC2"
		},
		{
			"bufferView":11,
			"componentType":5123,
			"count":4068,
			"type":"SCALAR"
		},
		{
			"bufferView":12,
			"componentType":5126,
			"count":4,
			"max":[
				1.9470441341400146,
				1.1185517311096191,
				0.9462581276893616
			],
			"min":[
				0.03242212533950806,
				1.1185497045516968,
				-0.9683638215065002
			],
			"type":"VEC3"
		},
		{
			"bufferView":13,
			"componentType":5126,
			"count":4,
			"type":"VEC3"
		},
		{
			"bufferView":14,
			"componentType":5126,
			"count":4,
			"type":"VEC2"
		},
		{
			"bufferView":15,
			"componentType":5123,
			"count":6,
			"type":"SCALAR"
		},
		{
			"bufferView":16,
			"componentType":5126,
			"count":2,
			"max":[
				0.8333333333333334
			],
			"min":[
				0
			],
			"type":"SCALAR"
		},
		{
			"bufferView":17,
			"componentType":5126,
			"count":2,
			"type":"VEC3"
		},
		{
			"bufferView":18,
			"componentType":5126,
			"count":21,
			"max":[
				0.8333333333333334
			],
			"min":[
				0
			],
			"type":"SCALAR"
		},
		{
			"bufferView":19,
			"componentType":5126,
			"count":21,
			"type":"VEC4"
		},
		{
			"bufferView":20,
			"componentType":5126,
			"count":2,
			"type":"VEC3"
		},
		{
			"bufferView":21,
			"componentType":5126,
			"count":2,
			"type":"VEC3"
		},
		{
			"bufferView":22,
			"componentType":5126,
			"count":21,
			"type":"VEC4"
		},
		{
			"bufferView":23,
			"componentType":5126,
			"count":2,
			"type":"VEC3"
		}
	],
	"bufferViews":[
		{
			"buffer":0,
			"byteLength":624,
			"byteOffset":0,
			"target":34962
		},
		{
			"buffer":0,
			"byteLength":624,
			"byteOffset":624,
			"target":34962
		},
		{
			"buffer":0,
			"byteLength":416,
			"byteOffset":1248,
			"target":34962
		},
		{
			"buffer":0,
			"byteLength":156,
			"byteOffset":1664,
			"target":34963
		},
		{
			"buffer":0,
			"byteLength":2064,
			"byteOffset":1820,
			"target":34962
		},
		{
			"buffer":0,
			"byteLength":2064,
			"byteOffset":3884,
			"target":34962
		},
		{
			"buffer":0,
			"byteLength":1376,
			"byteOffset":5948,
			"target":34962
		},
		{
			"buffer":0,
			"byteLength":984,
			"byteOffset":7324,
			"target":34963
		},
		{
			"buffer":0,
			"byteLength":32544,
			"byteOffset":8308,
			"target":34962
		},
		{
			"buffer":0,
			"byteLength":32544,
			"byteOffset":40852,
			"target":34962
		},
		{
			"buffer":0,
			"byteLength":21696,
			"byteOffset":73396,
			"target":34962
		},
		{
			"buffer":0,
			"byteLength":8136,
			"byteOffset":95092,
			"target":34963
		},
		{
			"buffer":0,
			"byteLength":48,
			"byteOffset":103228,
			"target":34962
		},
		{
			"buffer":0,
			"byteLength":48,
			"byteOffset":103276,
			"target":34962
		},
		{
			"buffer":0,
			"byteLength":32,
			"byteOffset":103324,
			"target":34962
		},
		{
			"buffer":0,
			"byteLength":12,
			"byteOffset":103356,
			"target":34963
		},
		{
			"buffer":0,
			"byteLength":8,
			"byteOffset":103368
		},
		{
			"buffer":0,
			"byteLength":24,
			"byteOffset":103376
		},
		{
			"buffer":0,
			"byteLength":84,
			"byteOffset":103400
		},
		{
			"buffer":0,
			"byteLength":336,
			"byteOffset":103484
		},
		{
			"buffer":0,
			"byteLength":24,
			"byteOffset":103820
		},
		{
			"buffer":0,
			"byteLength":24,
			"byteOffset":103844
		},
		{
			"buffer":0,
			"byteLength":336,
			"byteOffset":103868
		},
		{
			"buffer":0,
			"byteLength":24,
			"byteOffset":104204
		}
	],
	"samplers":[
		{
			"magFilter":9729,
			"minFilter":9987
		}
	],
	"buffers":[
		{
			"byteLength":104228,
			"uri":"laptop.bin"
		}
	]
}
